<svg xmlns="http://www.w3.org/2000/svg" xmlns:xlink="http://www.w3.org/1999/xlink" width="32" height="14" viewBox="0 0 32 14">
  <defs>
    <clipPath id="clip-applepay">
      <rect width="32" height="14"/>
    </clipPath>
  </defs>
  <g id="applepay" clip-path="url(#clip-applepay)">
    <g id="Group_24" data-name="Group 24" transform="translate(-8.242 -11.52)">
      <path id="Vector" d="M14.313,13.275a2.45,2.45,0,0,0,.559-1.755,2.528,2.528,0,0,0-1.622.824,2.312,2.312,0,0,0-.585,1.675A1.91,1.91,0,0,0,14.313,13.275Zm.559.9c-.9-.053-1.675.505-2.1.505s-1.09-.479-1.808-.479A2.668,2.668,0,0,0,8.7,15.588c-.957,1.675-.266,4.149.691,5.5.452.665,1.011,1.41,1.729,1.383.691-.027.957-.452,1.782-.452s1.064.452,1.808.426,1.223-.665,1.675-1.356a5.357,5.357,0,0,0,.745-1.542,2.409,2.409,0,0,1-.293-4.282A2.476,2.476,0,0,0,14.871,14.179Z" transform="translate(0 0)"/>
      <g id="Group" transform="translate(18.914 12.29)">
        <path id="Vector_2" d="M25.269,12.477a3.162,3.162,0,0,1,3.324,3.3A3.2,3.2,0,0,1,25.215,19.1H23.061v3.431H21.492V12.477ZM23.061,17.8h1.782A1.885,1.885,0,0,0,26.971,15.8a1.873,1.873,0,0,0-2.128-1.995H23.035V17.8Zm5.931,2.686c0-1.277.984-2.074,2.739-2.181l2.021-.106v-.559c0-.824-.558-1.3-1.463-1.3A1.4,1.4,0,0,0,30.747,17.4H29.311c.08-1.33,1.223-2.314,3.032-2.314,1.782,0,2.925.931,2.925,2.42v5.053H33.832v-1.2h-.027a2.606,2.606,0,0,1-2.314,1.33A2.253,2.253,0,0,1,28.992,20.481Zm4.76-.665v-.585l-1.808.106c-.9.053-1.409.452-1.409,1.09s.532,1.064,1.33,1.064A1.758,1.758,0,0,0,33.752,19.817ZM36.6,25.268V24.045a2.893,2.893,0,0,0,.479.027,1.23,1.23,0,0,0,1.3-1.037c0-.027.133-.452.133-.452l-2.659-7.34h1.622l1.862,5.984h.027l1.862-5.984h1.6l-2.739,7.739c-.638,1.782-1.356,2.34-2.872,2.34C37.1,25.295,36.731,25.295,36.6,25.268Z" transform="translate(-21.492 -12.477)"/>
      </g>
    </g>
  </g>
</svg>
