<svg xmlns="http://www.w3.org/2000/svg" xmlns:xlink="http://www.w3.org/1999/xlink" width="32" height="24" viewBox="0 0 32 24">
  <defs>
    <clipPath id="clip-path">
      <rect id="Rectangle_12" data-name="Rectangle 12" width="32" height="24" fill="#fff"/>
    </clipPath>
    <clipPath id="clip-cod">
      <rect width="32" height="24"/>
    </clipPath>
  </defs>
  <g id="cod" clip-path="url(#clip-cod)">
    <g id="Layer_1" clip-path="url(#clip-path)">
      <path id="Vector" d="M19.514,9.161h0a4.174,4.174,0,0,0,.891-2.567V6.5a4.327,4.327,0,0,0-4.433-4.215A4.327,4.327,0,0,0,11.538,6.5v.091a4.173,4.173,0,0,0,.891,2.567h0l3.453,4.42.089.114.089-.114Zm-9.668.178-.031-.063H6.357L6.34,9.37a4.846,4.846,0,0,1-3.833,3.874l-.089.02V17.82l.089.019a4.856,4.856,0,0,1,3.8,3.725l.019.09H25.616l.019-.09a4.86,4.86,0,0,1,3.8-3.725l.089-.02V13.263l-.089-.02A4.846,4.846,0,0,1,25.606,9.37l-.017-.093H22.131l-.031.063a6.379,6.379,0,0,1-.707,1.128h0l-.9,1.157-.059.075.064.071a5.478,5.478,0,0,1,1.446,3.694,5.82,5.82,0,0,1-5.967,5.659,5.82,5.82,0,0,1-5.967-5.659,5.478,5.478,0,0,1,1.446-3.694l.064-.071-.059-.075-.9-1.157-.034-.044h0A6.6,6.6,0,0,1,9.846,9.339ZM9.1,7.072h.119l-.006-.119q-.009-.179-.009-.359V6.5A6.6,6.6,0,0,1,15.972.085,6.6,6.6,0,0,1,22.738,6.5v.091q0,.179-.009.359l-.006.119h7.649a1.448,1.448,0,0,1,1.487,1.406V22.453a1.448,1.448,0,0,1-1.487,1.406H1.572A1.448,1.448,0,0,1,.085,22.453V8.478A1.448,1.448,0,0,1,1.572,7.072Zm8.067,8.8-.052.067a1.538,1.538,0,0,1-2.335-.067h0l-1.728-2.212-.1-.126-.086.135a3.324,3.324,0,0,0-.527,1.793,3.546,3.546,0,0,0,3.633,3.455,3.546,3.546,0,0,0,3.633-3.455,3.308,3.308,0,0,0-.527-1.793L19,13.538l-.1.126ZM2.532,9.276H2.418V10.97l.161-.074A2.542,2.542,0,0,0,3.928,9.427l.054-.151H2.532ZM28.079,21.5l-.068.158h1.515V20.112l-.161.075A2.553,2.553,0,0,0,28.079,21.5Zm1.285-10.6.161.074V9.276H27.961l.054.151A2.542,2.542,0,0,0,29.364,10.9ZM2.58,20.187l-.161-.075v1.543H3.932L3.865,21.5A2.541,2.541,0,0,0,2.58,20.187ZM17.458,6.655a1.489,1.489,0,0,1-2.973,0,1.489,1.489,0,0,1,2.973,0Z" transform="translate(0.028 0.028)" stroke="#fcfcfc" stroke-width="0.17"/>
    </g>
  </g>
</svg>
