<svg xmlns="http://www.w3.org/2000/svg" xmlns:xlink="http://www.w3.org/1999/xlink" width="32" height="20.34" viewBox="0 0 32 20.34">
  <defs>
    <clipPath id="clip-cvv">
      <rect width="32" height="20.34"/>
    </clipPath>
  </defs>
  <g id="cvv" clip-path="url(#clip-cvv)">
    <g id="Group_3" data-name="Group 3">
      <g id="Vector" transform="translate(0 -5.191)">
        <path id="Path_30" data-name="Path 30" d="M30,7.039H2V23.669H30ZM0,5.191V25.516H32V5.191Z" fill-rule="evenodd"/>
        <path id="Path_31" data-name="Path 31" d="M2,8.887H30v3.7H2Z"/>
      </g>
      <g id="_123" data-name="123" transform="translate(0 -5.191)">
        <path id="Path_32" data-name="Path 32" d="M21.738,18.063H20.98V15.449a2.677,2.677,0,0,1-.98.526v-.63a2.268,2.268,0,0,0,.645-.336,1.3,1.3,0,0,0,.478-.58h.615Z"/>
        <path id="Path_33" data-name="Path 33" d="M25.159,17.419v.644H22.5a1.572,1.572,0,0,1,.259-.691,4.738,4.738,0,0,1,.853-.869,5.118,5.118,0,0,0,.629-.592.721.721,0,0,0,.157-.425.452.452,0,0,0-.138-.355.616.616,0,0,0-.753,0,.638.638,0,0,0-.162.434L22.59,15.5a1.1,1.1,0,0,1,.424-.822,1.516,1.516,0,0,1,.891-.249,1.363,1.363,0,0,1,.92.289.911.911,0,0,1,.335.718,1.151,1.151,0,0,1-.1.467,1.839,1.839,0,0,1-.3.462,4.651,4.651,0,0,1-.5.462q-.359.3-.456.4a1.253,1.253,0,0,0-.154.192Z"/>
        <path id="Path_34" data-name="Path 34" d="M25.371,17.1l.734-.081a.613.613,0,0,0,.189.392.543.543,0,0,0,.372.136.529.529,0,0,0,.394-.163.6.6,0,0,0,.162-.439.559.559,0,0,0-.154-.415.512.512,0,0,0-.375-.153,1.435,1.435,0,0,0-.348.052l.084-.565a.714.714,0,0,0,.47-.121.422.422,0,0,0,.162-.346.376.376,0,0,0-.119-.291A.449.449,0,0,0,26.626,15a.48.48,0,0,0-.332.123.557.557,0,0,0-.167.36l-.7-.109a1.361,1.361,0,0,1,.219-.523.977.977,0,0,1,.41-.309,1.484,1.484,0,0,1,.591-.113,1.235,1.235,0,0,1,.9.326.816.816,0,0,1,.278.6.855.855,0,0,1-.569.76.933.933,0,0,1,.543.3.817.817,0,0,1,.205.56,1.045,1.045,0,0,1-.381.812,1.526,1.526,0,0,1-1.838.054A1.087,1.087,0,0,1,25.371,17.1Z"/>
      </g>
      <path id="Ellipse_5" data-name="Ellipse 5" d="M30.5,16.275a3.535,3.535,0,0,1-1.826,2.849A8.592,8.592,0,0,1,24,20.395a8.592,8.592,0,0,1-4.674-1.27A3.535,3.535,0,0,1,17.5,16.275a3.535,3.535,0,0,1,1.826-2.849A8.593,8.593,0,0,1,24,12.156a8.593,8.593,0,0,1,4.674,1.27A3.535,3.535,0,0,1,30.5,16.275Z" transform="translate(0 -5.191)" fill="none" stroke="red" stroke-width="1"/>
    </g>
  </g>
</svg>
