<svg xmlns="http://www.w3.org/2000/svg" xmlns:xlink="http://www.w3.org/1999/xlink" width="32" height="13" viewBox="0 0 32 13">
  <defs>
    <clipPath id="clip-path">
      <rect id="Rectangle_7" data-name="Rectangle 7" width="32" height="12.632" transform="translate(0.92 0.336)" fill="#fff"/>
    </clipPath>
    <clipPath id="clip-gpay">
      <rect width="32" height="13"/>
    </clipPath>
  </defs>
  <g id="gpay" clip-path="url(#clip-gpay)">
    <g id="google-pay-primary-logo_1" data-name="google-pay-primary-logo 1" transform="translate(-0.92 -0.336)" clip-path="url(#clip-path)">
      <g id="Group_23" data-name="Group 23" transform="translate(0.92 0.336)">
        <g id="Group" transform="translate(13.953 0.729)">
          <path id="Vector" d="M19.458,6.684v3.7H18.275V1.243h3.134a2.841,2.841,0,0,1,2.029.791,2.534,2.534,0,0,1,.847,1.929,2.526,2.526,0,0,1-.847,1.941,2.831,2.831,0,0,1-2.029.778Zm0-4.316V5.561h1.981a1.591,1.591,0,0,0,1.2-2.677c-.011-.011-.02-.021-.031-.031a1.546,1.546,0,0,0-1.169-.485ZM27.01,3.926a2.941,2.941,0,0,1,2.068.7,2.462,2.462,0,0,1,.757,1.908v3.856h-1.13V9.517h-.051A2.261,2.261,0,0,1,26.7,10.59a2.544,2.544,0,0,1-1.74-.613,1.953,1.953,0,0,1-.7-1.532A1.854,1.854,0,0,1,25,6.9a3.127,3.127,0,0,1,1.972-.574,3.513,3.513,0,0,1,1.733.382V6.439A1.334,1.334,0,0,0,28.217,5.4a1.679,1.679,0,0,0-1.141-.428,1.814,1.814,0,0,0-1.567.83l-1.04-.652A2.9,2.9,0,0,1,27.01,3.926ZM25.48,8.471a.938.938,0,0,0,.391.766,1.447,1.447,0,0,0,.918.306,1.894,1.894,0,0,0,1.33-.549,1.712,1.712,0,0,0,.587-1.29,2.424,2.424,0,0,0-1.542-.438,2,2,0,0,0-1.2.345A1.032,1.032,0,0,0,25.48,8.471ZM36.323,4.13l-3.945,9.014h-1.22L32.622,9.99l-2.6-5.86h1.284l1.875,4.494h.025L35.036,4.13Z" transform="translate(-18.275 -1.242)" fill="#5f6368"/>
        </g>
        <path id="Vector_2" d="M12.567,6.756a6.207,6.207,0,0,0-.091-1.069H7.492V7.71h2.854a2.429,2.429,0,0,1-1.055,1.6V10.62h1.7A5.118,5.118,0,0,0,12.567,6.756Z" transform="translate(-2.209 -1.385)" fill="#4285f4"/>
        <path id="Vector_3" d="M6.34,12.369a5.071,5.071,0,0,0,3.5-1.268l-1.7-1.314A3.213,3.213,0,0,1,3.374,8.121H1.619V9.475A5.286,5.286,0,0,0,6.34,12.369Z" transform="translate(-1.057 -1.862)" fill="#34a853"/>
        <path id="Vector_4" d="M3.238,7.3a3.129,3.129,0,0,1,0-2.011V3.938H1.483a5.224,5.224,0,0,0,0,4.718Z" transform="translate(-0.92 -1.042)" fill="#fbbc04"/>
        <path id="Vector_5" d="M6.34,2.416A2.88,2.88,0,0,1,8.367,3.2L9.876,1.7A5.1,5.1,0,0,0,6.34.336,5.288,5.288,0,0,0,1.619,3.23L3.374,4.584A3.158,3.158,0,0,1,6.34,2.416Z" transform="translate(-1.057 -0.336)" fill="#ea4335"/>
      </g>
    </g>
  </g>
</svg>
