<svg xmlns="http://www.w3.org/2000/svg" xmlns:xlink="http://www.w3.org/1999/xlink" width="32" height="26" viewBox="0 0 32 26">
  <defs>
    <clipPath id="clip-mastercard">
      <rect width="32" height="26"/>
    </clipPath>
  </defs>
  <g id="mastercard" clip-path="url(#clip-mastercard)">
    <g id="Page_1" data-name="Page 1" transform="translate(-11.52 -6.5)">
      <g id="master_card_2020_seeklogo.com" data-name="master card 2020 seeklogo.com">
        <g id="Group_5" data-name="Group 5">
          <path id="Fill_1" data-name="Fill 1" d="M23.08,23.993h8.569V8.594H23.08Z" fill="#e26231" fill-rule="evenodd"/>
          <path id="Fill_3" data-name="Fill 3" d="M23.624,16.294a9.776,9.776,0,0,1,3.74-7.7,9.793,9.793,0,1,0,0,15.4A9.777,9.777,0,0,1,23.624,16.294Z" fill="#d92832" fill-rule="evenodd"/>
          <path id="Fill_4" data-name="Fill 4" d="M43.209,16.294a9.793,9.793,0,0,1-15.845,7.7,9.795,9.795,0,0,0,0-15.4,9.793,9.793,0,0,1,15.845,7.7Z" fill="#ed963c" fill-rule="evenodd"/>
        </g>
        <path id="Fill_6" data-name="Fill 6" d="M17.321,30.605a.877.877,0,1,1,.879.927A.869.869,0,0,1,17.321,30.605Zm2.346,0V29.156h-.631v.352a1.1,1.1,0,0,0-.916-.424,1.523,1.523,0,0,0,0,3.043,1.1,1.1,0,0,0,.916-.424v.352h.631Zm21.292,0a.877.877,0,1,1,.879.927A.869.869,0,0,1,40.959,30.605Zm2.346,0V27.992h-.631v1.516a1.1,1.1,0,0,0-.915-.424,1.523,1.523,0,0,0,0,3.043,1.1,1.1,0,0,0,.915-.424v.352h.631Zm-15.817-.958a.72.72,0,0,1,.733.7h-1.5A.746.746,0,0,1,27.488,29.647Zm.012-.564a1.523,1.523,0,0,0,.042,3.043,1.761,1.761,0,0,0,1.188-.406l-.309-.467a1.38,1.38,0,0,1-.843.3.8.8,0,0,1-.867-.709h2.152c.006-.079.012-.158.012-.243A1.389,1.389,0,0,0,27.5,29.083Zm7.608,1.522a.877.877,0,1,1,.879.927A.869.869,0,0,1,35.109,30.605Zm2.346,0V29.156h-.631v.352a1.1,1.1,0,0,0-.915-.424,1.523,1.523,0,0,0,0,3.043,1.1,1.1,0,0,0,.915-.424v.352h.631Zm-5.9,0A1.464,1.464,0,0,0,33.1,32.127a1.517,1.517,0,0,0,1.043-.346l-.3-.509a1.274,1.274,0,0,1-.758.261.929.929,0,0,1,0-1.855,1.274,1.274,0,0,1,.758.261l.3-.509a1.517,1.517,0,0,0-1.043-.346A1.464,1.464,0,0,0,31.55,30.605Zm8.124-1.522a.854.854,0,0,0-.764.424v-.352h-.624v2.9h.63V30.429c0-.479.206-.746.618-.746a1.027,1.027,0,0,1,.394.073l.194-.594A1.346,1.346,0,0,0,39.674,29.083Zm-16.89.3a2.166,2.166,0,0,0-1.182-.3c-.734,0-1.207.352-1.207.927,0,.473.352.764,1,.855l.3.042c.346.048.509.139.509.3,0,.224-.23.352-.661.352a1.544,1.544,0,0,1-.964-.3l-.3.491a2.09,2.09,0,0,0,1.255.376c.837,0,1.321-.394,1.321-.946,0-.509-.382-.776-1.012-.867l-.3-.042c-.273-.036-.491-.091-.491-.285,0-.212.206-.339.552-.339a1.868,1.868,0,0,1,.9.249Zm8.13-.3a.855.855,0,0,0-.764.424v-.352h-.624v2.9h.631V30.429c0-.479.206-.746.618-.746a1.027,1.027,0,0,1,.394.073l.194-.594A1.346,1.346,0,0,0,30.914,29.083Zm-5.377.073H24.506v-.879h-.637v.879h-.588v.576h.588v1.322c0,.673.261,1.073,1.007,1.073a1.48,1.48,0,0,0,.788-.224l-.182-.539a1.164,1.164,0,0,1-.558.164c-.315,0-.418-.194-.418-.485v-1.31h1.031Zm-9.421,2.9V30.235a1.079,1.079,0,0,0-1.14-1.152,1.122,1.122,0,0,0-1.018.515A1.064,1.064,0,0,0,13,29.083a.958.958,0,0,0-.849.43v-.358h-.63v2.9h.637V30.448a.678.678,0,0,1,.709-.77c.418,0,.63.273.63.764v1.613h.637V30.448a.683.683,0,0,1,.709-.77c.43,0,.637.273.637.764v1.613Z" fill="#000105" fill-rule="evenodd"/>
      </g>
    </g>
  </g>
</svg>
