<svg xmlns="http://www.w3.org/2000/svg" xmlns:xlink="http://www.w3.org/1999/xlink" width="126.2" height="39.6" viewBox="0 0 126.2 39.6">
  <defs>
    <clipPath id="clip-tabby">
      <rect width="126.2" height="39.6"/>
    </clipPath>
  </defs>
  <g id="tabby" clip-path="url(#clip-tabby)">
    <g id="tabby-2" data-name="tabby" transform="translate(-1.5)">
      <path id="Layer" d="M121.2,7.9l-8.3,31.6v.1h6.5l8.3-31.7Z" fill="#292929"/>
      <path id="Layer-2" data-name="Layer" d="M18.6,25.9a6.428,6.428,0,0,1-3.1.7c-2.3,0-3.6-.4-3.8-2.2V8L6,8.8a7.249,7.249,0,0,0,6.1-6.9V0H5.6V8.8l-.3.1V25.3c.2,4.6,3.2,7.4,8.2,7.4a12.742,12.742,0,0,0,5.2-1.1V25.8Z" fill="#292929"/>
      <path id="Layer-3" data-name="Layer" d="M19.7,6.7,1.5,9.5v4.6l18.2-2.8Z" fill="#292929"/>
      <path id="Layer-4" data-name="Layer" d="M19.7,13.4,1.5,16.2v4.4l18.2-2.8Z" fill="#292929"/>
      <path id="Layer-5" data-name="Layer" d="M40.1,8.9l6.4-1V32.2H40.1V24.5c-.3,5.1-3.5,8.2-8.7,8.2a8.458,8.458,0,0,1-7.1-3.4c-1.7-2.2-2.6-5.4-2.6-9.3s.9-7.1,2.6-9.3a8.381,8.381,0,0,1,7.1-3.3c5.2,0,8.4,3,8.7,8.1Zm.3,11.2a8.567,8.567,0,0,0-1.6-5.5,5.7,5.7,0,0,0-4.5-2.1c-3.8,0-6,2.9-6,7.6,0,4.6,2.2,7.4,6,7.4C38,27.5,40.4,24.6,40.4,20.1Z" fill="#292929" fill-rule="evenodd"/>
      <path id="Layer-6" data-name="Layer" d="M75.2,20c0,8-3.6,12.7-9.7,12.7-5.3,0-8.5-3.1-8.7-8.2v7.7H50.3V1.9l6.5-1V15.6c.2-5.2,3.4-8.2,8.7-8.2,6.1,0,9.7,4.7,9.7,12.6Zm-6.6,0c0-4.7-2.3-7.5-6.1-7.5A5.547,5.547,0,0,0,58,14.6,8.885,8.885,0,0,0,56.4,20c0,4.6,2.4,7.5,6.1,7.5C66.3,27.5,68.6,24.7,68.6,20Z" fill="#292929" fill-rule="evenodd"/>
      <path id="Layer-7" data-name="Layer" d="M102.6,20c0,8-3.6,12.7-9.7,12.7-5.3,0-8.5-3.1-8.7-8.2v7.7H77.7V1.9l6.5-1V15.6c.2-5.2,3.4-8.2,8.7-8.2,6.1,0,9.7,4.7,9.7,12.6ZM96,20c0-4.7-2.3-7.5-6.1-7.5a5.547,5.547,0,0,0-4.5,2.1A8.885,8.885,0,0,0,83.8,20c0,4.6,2.4,7.5,6.1,7.5C93.7,27.5,96,24.7,96,20Z" fill="#292929" fill-rule="evenodd"/>
      <path id="Layer-8" data-name="Layer" d="M102.6,7.9h6.9l5.7,24.3H109Z" fill="#292929"/>
    </g>
  </g>
</svg>
