<svg xmlns="http://www.w3.org/2000/svg" xmlns:xlink="http://www.w3.org/1999/xlink" width="190.2" height="39.6" viewBox="0 0 190.2 39.6">
  <defs>
    <clipPath id="clip-path">
      <path id="Path_37" data-name="Path 37" d="M-41-9H234.084V67.863H-41Z" transform="translate(0 0)"/>
    </clipPath>
    <clipPath id="clip-tamara">
      <rect width="190.2" height="39.6"/>
    </clipPath>
  </defs>
  <g id="tamara" clip-path="url(#clip-tamara)">
    <g id="Clip-Path-2" data-name="Clip-Path" transform="translate(-44.758 -9.208)" clip-path="url(#clip-path)">
      <g id="Layer" transform="translate(-41.214 10.216)">
        <path id="Layer-2" data-name="Layer" d="M64.7,30.1a9.917,9.917,0,0,0,1.924.214h.855V36.51h-.641a32.119,32.119,0,0,1-7.908-.641,7.669,7.669,0,0,1-5.344-3.2,10.272,10.272,0,0,1-1.5-5.124V13.451H46.32V7.9h5.771V0h8.55V7.9l7.053-1.068,1.71,5.551a31.5,31.5,0,0,1-7.695.854l-1.069.214V25.194a5.706,5.706,0,0,0,.427,2.135q.641,2.349,3.634,2.776Zm36.122-12.383V36.51H93.129V31.172l-1.924,1.281c0,.214-.427.427-.641.641l-.214.214a13.635,13.635,0,0,1-9.4,3.2,9.9,9.9,0,0,1-4.061-.854,11.047,11.047,0,0,1-2.992-2.776,8.381,8.381,0,0,1-1.5-4.911c0-5.338,3.634-7.046,6.626-7.686a21.156,21.156,0,0,1,2.992-.214,28.979,28.979,0,0,1,8.55,1.708l.214.214h.214a.909.909,0,0,0,.855,0l1.282-.214a38.085,38.085,0,0,0-.214-4.484c-.427-2.135-2.779-3.416-5.344-3.416-2.351,0-4.275,1.922-5.557,3.63-1.5-1.068-2.565-2.135-3.634-2.989L76.244,12.81c1.71-3.2,4.275-4.484,7.481-5.124a16.322,16.322,0,0,1,10.687.854,9.421,9.421,0,0,1,6.412,9.181Zm-7.695,6.832H78.808v1.068a4.908,4.908,0,0,0,3.634,5.124,7.954,7.954,0,0,0,1.924.214h.214c3.206,0,5.771-1.708,7.481-4.7Zm88.489-6.832V36.51h-7.695V31.172L172,32.453c-.214.214-.641.427-.641.641l-.214.214a13.635,13.635,0,0,1-9.4,3.2,9.9,9.9,0,0,1-4.061-.854,8.052,8.052,0,0,1-2.992-2.776,7.113,7.113,0,0,1-1.5-4.911c0-5.338,3.634-7.046,6.626-7.686a21.156,21.156,0,0,1,2.992-.214,30.406,30.406,0,0,1,8.55,1.708l.214.214h.214a.909.909,0,0,0,.855,0l1.282-.214a38.09,38.09,0,0,0-.214-4.484c-.427-2.135-2.992-3.416-5.557-3.416-2.137,0-4.275,1.922-5.344,3.63-1.5-1.068-2.565-2.135-3.634-2.989l-2.137-1.708c1.71-3.2,4.275-4.484,7.481-5.338A17.967,17.967,0,0,1,175.205,8.54a9.421,9.421,0,0,1,6.412,9.181Zm-7.908,6.832H159.6v1.068a4.748,4.748,0,0,0,3.42,5.124,9.917,9.917,0,0,0,1.924.214h.427c3.206,0,5.771-1.708,7.481-4.7ZM217.1,7.473A17.784,17.784,0,0,1,227.785,8.54a9.421,9.421,0,0,1,6.412,9.181V36.51H226.5V31.172l-1.924,1.281c0,.214-.427.427-.641.641l-.214.214a14.755,14.755,0,0,1-9.4,3.2,9.9,9.9,0,0,1-4.061-.854,11.048,11.048,0,0,1-2.992-2.776,10.265,10.265,0,0,1-1.5-4.911c0-5.338,3.634-7.046,6.626-7.686a21.157,21.157,0,0,1,2.992-.214,23.477,23.477,0,0,1,8.55,1.708h.214l.214.214a.909.909,0,0,0,.855,0l1.282-.427a34.893,34.893,0,0,0-.214-4.27c-.427-2.135-2.779-3.416-5.343-3.416-2.351,0-4.275,1.922-5.557,3.63-1.5-1.068-2.565-2.135-3.634-2.989l-2.137-1.708c1.71-3.2,4.275-4.484,7.481-5.338Zm.855,23.486a8.2,8.2,0,0,0,7.481-4.7l1.069-1.708H212.182v1.068c0,2.562,1.282,4.484,3.634,4.911a4.246,4.246,0,0,0,1.924.427ZM204.274,9.608v7.259h-.214a25.963,25.963,0,0,0-3.847.214,6.347,6.347,0,0,0-4.061,2.135,5.373,5.373,0,0,0-1.924,4.27V36.51h-7.481V10.035h7.481v4.27l1.71.427a19.689,19.689,0,0,1,1.069-1.708,5.521,5.521,0,0,1,5.344-3.416Zm-72.886,26.9H123.48V21.778a4.856,4.856,0,0,0-.855-3.416,5.343,5.343,0,0,0-5.557-1.708,6,6,0,0,0-2.351,1.495,5.187,5.187,0,0,0-1.069,2.562v15.8H105.74V10.035h7.908v5.978l1.069-2.135A9.721,9.721,0,0,1,125.4,9.608c2.992.854,4.916,3.416,5.557,6.619l1.069-2.349c2.565-4.27,7.908-4.911,11.115-4.057,2.992.854,4.7,2.776,5.344,6.192a15.544,15.544,0,0,1,.214,2.562V36.51h-7.481V20.5a4.864,4.864,0,0,0-5.557-4.057c-2.565.214-4.275,2.349-4.275,5.124ZM-3.482,21.564a17.1,17.1,0,1,1,17.1,17.294A17.14,17.14,0,0,1-3.482,21.564ZM-37.039,9.821A17.031,17.031,0,0,1-25.069,4.7,15.789,15.789,0,0,1-13.1,9.394c3.847,3.416,10.046,14.091.641,23.913l-.427.427a22.332,22.332,0,0,1-3.42,2.776L-41.1,16.013a18.8,18.8,0,0,1,3.634-5.765Z" transform="translate(41.1 0)" fill-rule="evenodd"/>
      </g>
    </g>
  </g>
</svg>
