<svg xmlns="http://www.w3.org/2000/svg" xmlns:xlink="http://www.w3.org/1999/xlink" width="32" height="11" viewBox="0 0 32 11">
  <defs>
    <linearGradient id="linear-gradient" x1="1.013" y1="0.5" x2="-0.019" y2="0.546" gradientUnits="objectBoundingBox">
      <stop offset="0" stop-color="#174286"/>
      <stop offset="1" stop-color="#1d1c46"/>
    </linearGradient>
    <clipPath id="clip-visa">
      <rect width="32" height="11"/>
    </clipPath>
  </defs>
  <g id="visa" clip-path="url(#clip-visa)">
    <path id="Fill_1" data-name="Fill 1" d="M25.122,13.473,22.983,23.51H20.4l2.139-10.038ZM36,19.954l1.361-3.769.784,3.769Zm2.885,3.557h2.392L39.19,13.473H36.983a1.177,1.177,0,0,0-1.1.736L32,23.51h2.715l.539-1.5h3.317Zm-6.749-3.278c.012-2.649-3.648-2.8-3.622-3.979.008-.36.349-.743,1.1-.841a4.861,4.861,0,0,1,2.549.449l.454-2.128a6.924,6.924,0,0,0-2.419-.445c-2.556,0-4.355,1.365-4.369,3.318-.017,1.446,1.284,2.251,2.264,2.732,1.007.492,1.345.807,1.341,1.247-.008.674-.8.971-1.548.982a5.39,5.39,0,0,1-2.656-.634l-.468,2.2a7.8,7.8,0,0,0,2.875.533C30.352,23.667,32.128,22.32,32.137,20.233Zm-10.71-6.76L17.237,23.51H14.5L12.443,15.5a1.1,1.1,0,0,0-.614-.882,10.785,10.785,0,0,0-2.551-.854l.061-.291h4.4A1.206,1.206,0,0,1,14.931,14.5L16.02,20.3l2.691-6.832Z" transform="translate(-9.277 -13.167)" fill-rule="evenodd" fill="url(#linear-gradient)"/>
  </g>
</svg>
